<?xml version="1.0" encoding="UTF-8" standalone="no"?>
<!-- Created with Inkscape (http://www.inkscape.org/) -->

<svg
   xmlns:dc="http://purl.org/dc/elements/1.1/"
   xmlns:cc="http://creativecommons.org/ns#"
   xmlns:rdf="http://www.w3.org/1999/02/22-rdf-syntax-ns#"
   xmlns:svg="http://www.w3.org/2000/svg"
   xmlns="http://www.w3.org/2000/svg"
   xmlns:sodipodi="http://sodipodi.sourceforge.net/DTD/sodipodi-0.dtd"
   xmlns:inkscape="http://www.inkscape.org/namespaces/inkscape"
   width="744.09448"
   height="1052.3622"
   id="svg2"
   version="1.1"
   inkscape:version="0.48.4 r9939"
   sodipodi:docname="Front_page.svg">
  <defs
     id="defs4" />
  <sodipodi:namedview
     id="base"
     pagecolor="#ffffff"
     bordercolor="#666666"
     borderopacity="1.0"
     inkscape:pageopacity="0.0"
     inkscape:pageshadow="2"
     inkscape:zoom="0.7"
     inkscape:cx="-144.46958"
     inkscape:cy="481.86304"
     inkscape:document-units="mm"
     inkscape:current-layer="layer3"
     showgrid="false"
     inkscape:window-width="1680"
     inkscape:window-height="1000"
     inkscape:window-x="0"
     inkscape:window-y="0"
     inkscape:window-maximized="1"
     showguides="false"
     inkscape:guide-bbox="true"
     units="mm"
     inkscape:snap-grids="false"
     inkscape:snap-bbox="true"
     inkscape:snap-bbox-midpoints="true"
     inkscape:snap-global="true"
     inkscape:snap-to-guides="true">
    <sodipodi:guide
       orientation="0,1"
       position="-35.433071,350.7874"
       id="guide3069" />
    <sodipodi:guide
       orientation="0,1"
       position="-35.433071,701.5748"
       id="guide3071" />
    <inkscape:grid
       units="mm"
       empspacing="10"
       visible="true"
       enabled="true"
       snapvisiblegridlinesonly="true"
       type="xygrid"
       id="grid3073" />
    <sodipodi:guide
       orientation="0,1"
       position="-35.433071,526.1811"
       id="guide3079" />
    <sodipodi:guide
       orientation="0,1"
       position="-35.433071,175.3937"
       id="guide3081" />
    <sodipodi:guide
       orientation="0,1"
       position="-35.433071,876.9685"
       id="guide3083" />
    <sodipodi:guide
       orientation="0,1"
       position="-35.433071,789.27165"
       id="guide3085" />
    <sodipodi:guide
       orientation="0,1"
       position="-35.433071,613.87795"
       id="guide3087" />
    <sodipodi:guide
       orientation="0,1"
       position="-35.433071,87.69685"
       id="guide3089" />
  </sodipodi:namedview>
  <metadata
     id="metadata7">
    <rdf:RDF>
      <cc:Work
         rdf:about="">
        <dc:format>image/svg+xml</dc:format>
        <dc:type
           rdf:resource="http://purl.org/dc/dcmitype/StillImage" />
        <dc:title />
      </cc:Work>
    </rdf:RDF>
  </metadata>
  <g
     inkscape:groupmode="layer"
     id="layer3"
     inkscape:label="Deckblatt"
     transform="translate(0,-2.5390623e-6)"
     style="display:inline">
    <g
       id="g3055"
       transform="translate(93.781433,248.90889)">
      <text
         sodipodi:linespacing="125%"
         id="text3047"
         y="434.14883"
         x="279.31418"
         style="font-size:16px;font-style:normal;font-variant:normal;font-weight:normal;font-stretch:normal;text-align:center;line-height:125%;letter-spacing:2.13999987px;word-spacing:0px;text-anchor:middle;fill:#000000;fill-opacity:1;stroke:none;font-family:EB Garamond 12 All SC;-inkscape-font-specification:EB Garamond 12 All SC"
         xml:space="preserve"><tspan
           y="434.14883"
           x="280.38419"
           id="tspan3049"
           sodipodi:role="line">josef</tspan></text>
      <text
         sodipodi:linespacing="125%"
         id="text3051"
         y="452.66589"
         x="277.94019"
         style="font-size:12px;font-style:normal;font-variant:normal;font-weight:normal;font-stretch:normal;text-align:center;line-height:125%;letter-spacing:5.19000053px;word-spacing:0px;text-anchor:middle;fill:#d40000;fill-opacity:1;stroke:none;font-family:EB Garamond;-inkscape-font-specification:EB Garamond"
         xml:space="preserve"><tspan
           style="font-size:20px;letter-spacing:5.19000053px;fill:#d40000"
           y="452.66589"
           x="280.53519"
           id="tspan3053"
           sodipodi:role="line">REITER</tspan></text>
    </g>
    <text
       xml:space="preserve"
       style="font-size:12px;font-style:normal;font-variant:normal;font-weight:normal;font-stretch:normal;text-align:center;line-height:110.00000238%;letter-spacing:0px;word-spacing:0px;text-anchor:middle;fill:#000000;fill-opacity:1;stroke:none;font-family:EB Garamond;-inkscape-font-specification:EB Garamond"
       x="372.3208"
       y="412.09424"
       id="text3061"
       sodipodi:linespacing="110%"><tspan
         sodipodi:role="line"
         x="372.3208"
         y="412.09424"
         style="font-size:14px;font-style:normal;line-height:110.00000238%;-inkscape-font-specification:EB Garamond"
         id="tspan3077">Sextett op. 133</tspan></text>
    <text
       xml:space="preserve"
       style="font-size:14px;font-style:normal;font-variant:normal;font-weight:normal;font-stretch:normal;text-align:center;line-height:125%;letter-spacing:1.84000015px;word-spacing:0px;text-anchor:middle;fill:#000000;fill-opacity:1;stroke:none;font-family:EB Garamond 12 All SC;-inkscape-font-specification:EB Garamond 12 All SC"
       x="372.06738"
       y="967.76636"
       id="text3099"
       sodipodi:linespacing="125%"><tspan
         sodipodi:role="line"
         x="372.9874"
         y="967.76636"
         id="tspan3023">full score</tspan></text>
    <text
       sodipodi:linespacing="110%"
       id="text3021"
       y="876.96851"
       x="371.86884"
       style="font-size:12px;font-style:normal;font-variant:normal;font-weight:normal;font-stretch:normal;text-align:center;line-height:110.00000238%;letter-spacing:0px;word-spacing:0px;text-anchor:middle;fill:#000000;fill-opacity:1;stroke:none;font-family:EB Garamond;-inkscape-font-specification:EB Garamond"
       xml:space="preserve"><tspan
         id="tspan3032"
         style="font-size:14px;font-style:normal;line-height:110.00000238%;-inkscape-font-specification:EB Garamond"
         y="876.96851"
         x="371.86884"
         sodipodi:role="line">2 vl, vla, vlc, cb, pf</tspan></text>
    <g
       style="font-size:72px;font-style:normal;font-variant:normal;font-weight:normal;font-stretch:normal;text-align:center;line-height:100%;letter-spacing:0px;word-spacing:0px;text-anchor:middle;fill:#ffffff;fill-opacity:1;stroke:#808080;stroke-width:0.625;stroke-miterlimit:4;stroke-dasharray:none;font-family:EB Garamond;-inkscape-font-specification:EB Garamond"
       id="text3014"
       transform="translate(89.815118,-275.16435)">
      <path
         d="m 101.96269,485.11889 c 0,-1.07999 1.008,-1.656 3.6,-1.656 4.82399,0 9.072,3.52801 9.072,8.352 0,3.744 -1.58401,6.33601 -4.392,8.712 -2.016,1.728 -3.096,1.87201 -3.096,2.592 0,0.864 0.504,1.224 1.296,1.224 0.792,0 1.944,0 4.608,-1.44 5.03999,-2.73599 8.784,-6.264 8.784,-12.168 0,-7.27199 -8.06401,-10.44 -15.336,-10.44 -6.408,0 -9.360009,0.21601 -15.696002,0.72 -1.511999,0.072 -2.520001,0.43201 -2.520001,1.296 0,0.648 0.504001,1.008 1.152,1.224 4.103996,1.152 5.904,1.22401 5.904,5.328 l 0,26.28 c 0,2.664 -0.936002,4.10401 -3.383999,5.184 -1.583999,0.72 -3.960001,1.08001 -3.960001,2.16 0,0.72 1.584001,1.152 2.376001,1.224 0.503999,0 4.824003,-0.432 7.92,-0.432 3.455992,0 8.208002,0.432 8.712002,0.432 0.792,-0.072 2.304,-0.504 2.304,-1.224 0,-1.07999 -2.376,-1.44 -3.96,-2.16 -2.448,-1.07999 -3.384,-2.52 -3.384,-5.184 l 0,-30.024"
         style="fill:#ffffff;stroke:#808080;stroke-width:0.625;stroke-miterlimit:4;stroke-dasharray:none"
         id="path3021"
         inkscape:connector-curvature="0" />
      <path
         d="m 140.70994,497.93489 0,-12.096 c 0,-0.93599 0.288,-1.512 2.232,-1.512 l 8.568,0 c 3.45599,0 5.256,1.15201 5.832,2.376 0.648,1.44 1.728,2.736 2.592,2.736 0.864,0 1.152,-1.008 1.152,-1.872 0,-0.79199 -0.36,-4.752 -0.648,-5.904 -0.144,-0.64799 -0.72,-1.008 -1.872,-1.008 -1.296,0 -5.54401,0.36 -8.568,0.36 l -20.664,0 c -1.512,0 -2.52,0.43201 -2.52,1.296 0,0.648 0.504,1.008 1.152,1.224 4.10399,1.152 5.904,1.22401 5.904,5.328 l 0,26.28 c 0,2.664 -0.936,4.10401 -3.384,5.184 -1.584,0.72 -3.96,1.08001 -3.96,2.16 0,0.72 1.584,1.152 2.376,1.224 0.504,0 4.752,-0.36 8.136,-0.36 7.63199,0 20.664,0.36 23.328,0.36 1.224,0 1.368,-0.288 1.944,-1.368 0.576,-0.93599 2.736,-6.264 2.736,-8.28 0,-1.07999 -0.288,-1.8 -1.008,-1.8 -0.648,0 -1.584,0.57601 -1.944,1.368 -2.088,4.392 -3.02401,6.696 -8.568,6.696 l -10.08,0 c -2.088,0 -2.736,-0.936 -2.736,-2.808 l 0,-12.096 c 0,-1.36799 0.36,-1.728 1.728,-1.728 l 7.56,0 c 1.512,0 2.016,0.72001 2.52,1.512 0.432,0.72 1.368,2.736 2.304,2.736 0.72,0 0.936,-1.152 0.936,-1.872 0,-0.79199 -0.072,-3.024 -0.072,-4.104 0,-1.07999 0.288,-3.6 0.288,-4.176 0,-0.86399 -0.144,-1.44 -0.792,-1.44 -0.792,0 -1.44,1.08001 -2.232,1.8 -1.296,1.224 -2.088,2.016 -4.392,2.016 l -6.192,0 c -1.008,0 -1.656,-0.504 -1.656,-2.232"
         style="fill:#ffffff;stroke:#808080;stroke-width:0.625;stroke-miterlimit:4;stroke-dasharray:none"
         id="path3023"
         inkscape:connector-curvature="0" />
      <path
         d="m 196.17581,505.85489 c -0.936,-1.36799 -1.8,-2.952 -1.8,-3.6 0,-0.64799 0.288,-0.576 1.224,-1.296 3.384,-2.44799 5.688,-5.472 5.688,-10.08 0,-7.27199 -8.064,-10.296 -15.336,-10.296 -6.40799,0 -9.36,0.21601 -15.696,0.72 -1.512,0.072 -2.52,0.43201 -2.52,1.296 0,0.648 0.504,1.008 1.152,1.224 4.104,1.152 5.904,1.22401 5.904,5.328 l 0,25.992 c 0,2.664 -0.936,4.10401 -3.384,5.184 -1.584,0.72 -3.96,1.08001 -3.96,2.16 0,0.72 1.584,1.152 2.376,1.224 0.504,0 4.82401,-0.432 7.92,-0.432 3.456,0 8.208,0.432 8.712,0.432 0.792,-0.072 2.304,-0.504 2.304,-1.224 0,-1.07999 -2.376,-1.44 -3.96,-2.16 -2.448,-1.07999 -3.384,-2.52 -3.384,-5.184 l 0,-8.64 c 0,-1.43999 0.504,-1.944 2.016,-1.944 3.024,0 5.112,0.93601 5.976,2.376 3.744,6.264 7.12801,10.51201 11.376,14.976 2.016,2.16 5.61601,3.384 9.144,3.384 2.52,0 5.04,-0.864 5.04,-2.16 0,-0.57599 -0.432,-1.152 -1.224,-1.224 -1.584,-0.144 -3.24,-0.504 -4.104,-1.152 -5.39999,-3.88799 -9.936,-9.648 -13.464,-14.904 m -11.808,-3.888 c -2.088,0 -2.952,-0.576 -2.952,-1.872 l 0,-13.896 c 0,-1.36799 1.584,-2.448 3.6,-2.448 4.824,0 9.072,3.38401 9.072,8.208 0,3.744 -1.584,6.19201 -4.392,8.568 -0.648,0.72 -3.168,1.44 -5.328,1.44"
         style="fill:#ffffff;stroke:#808080;stroke-width:0.625;stroke-miterlimit:4;stroke-dasharray:none"
         id="path3025"
         inkscape:connector-curvature="0" />
      <path
         d="m 244.87819,503.98289 5.04,-14.328 c 0.288,-0.71999 0.576,-0.93599 0.792,-0.216 l 4.392,13.464 c 0.72,2.304 0.648,2.592 -0.792,2.592 l -8.784,0 c -1.296,0 -1.08,-0.36 -0.648,-1.512 m 20.52,19.296 c 2.376,0 4.968,0.432 6.624,0.432 1.368,0 2.088,-0.36 2.088,-1.152 0,-0.71999 -0.648,-1.44 -2.88,-2.232 -3.528,-1.29599 -4.32,-3.24 -6.408,-9.072 l -9.504,-26.856 c -1.008,-2.80799 -1.44,-5.184 -2.664,-5.184 -0.432,0 -1.728,2.016 -3.096,2.16 -0.792,0.072 -0.792,1.00801 -2.016,4.104 l -11.016,30.456 c -1.08,2.952 -1.008,3.31201 -3.384,4.392 -1.584,0.72 -3.96,1.08001 -3.96,2.16 0,0.792 1.008,1.224 2.376,1.224 1.08,0 2.736,-0.432 4.536,-0.432 1.368,0 4.536,0.432 5.904,0.432 1.8,0 2.52,-0.432 2.52,-1.224 0,-0.71999 -0.792,-1.512 -2.664,-2.016 -2.088,-0.57599 -2.016,-1.728 -1.584,-3.024 l 2.736,-7.848 c 0.288,-0.71999 0.792,-0.792 1.152,-0.792 l 12.024,0 c 0.576,0 0.936,0.21601 1.152,0.864 l 2.088,6.84 c 0.36,1.224 0.50399,2.59201 -2.088,3.816 -1.584,0.72 -3.888,1.08001 -3.888,2.16 0,0.792 1.368,1.224 2.304,1.224 2.16,0 4.896,-0.432 9.648,-0.432"
         style="fill:#ffffff;stroke:#808080;stroke-width:0.625;stroke-miterlimit:4;stroke-dasharray:none"
         id="path3027"
         inkscape:connector-curvature="0" />
      <path
         d="m 291.13369,480.29489 c -7.056,0 -12.816,5.32801 -12.816,12.096 0,3.528 1.656,6.12001 4.248,8.28 l 9.72,8.208 c 1.8,1.512 2.88,3.31201 2.88,5.76 0,3.6 -2.66401,6.912 -6.264,6.912 -4.176,0 -6.984,-2.088 -7.776,-4.68 -0.648,-2.15999 -1.296,-3.384 -2.448,-3.384 -0.72,0 -1.224,0.86401 -1.368,1.728 -0.216,0.936 -0.504,3.96001 -0.504,4.968 0,1.008 0.648,1.36801 3.312,2.592 1.728,0.792 5.04,1.584 7.56,1.584 7.19999,0 14.472,-5.256 14.472,-12.312 0,-3.02399 -1.224,-5.472 -3.456,-7.344 l -10.152,-8.568 c -2.16,-1.79999 -3.672,-3.672 -3.672,-6.048 0,-3.16799 2.808,-5.688 5.904,-5.688 2.088,0 4.968,0.86401 5.688,2.592 1.08,2.592 2.016,3.312 2.88,3.312 1.08,0 1.44,-1.008 1.44,-1.944 0,-1.36799 -0.072,-2.952 -0.288,-4.104 -0.144,-0.79199 -0.792,-1.368 -2.16,-2.088 -1.584,-0.79199 -4.896,-1.872 -7.2,-1.872"
         style="fill:#ffffff;stroke:#808080;stroke-width:0.625;stroke-miterlimit:4;stroke-dasharray:none"
         id="path3029"
         inkscape:connector-curvature="0" />
      <path
         d="m 319.22831,485.11889 c 0,-1.07999 1.00801,-1.656 3.6,-1.656 4.824,0 9.072,3.52801 9.072,8.352 0,3.744 -1.584,6.33601 -4.392,8.712 -2.016,1.728 -3.096,1.87201 -3.096,2.592 0,0.864 0.504,1.224 1.296,1.224 0.792,0 1.94401,0 4.608,-1.44 5.04,-2.73599 8.784,-6.264 8.784,-12.168 0,-7.27199 -8.064,-10.44 -15.336,-10.44 -6.40799,0 -9.36,0.21601 -15.696,0.72 -1.512,0.072 -2.52,0.43201 -2.52,1.296 0,0.648 0.504,1.008 1.152,1.224 4.104,1.152 5.904,1.22401 5.904,5.328 l 0,26.28 c 0,2.664 -0.936,4.10401 -3.384,5.184 -1.584,0.72 -3.96,1.08001 -3.96,2.16 0,0.72 1.584,1.152 2.376,1.224 0.504,0 4.82401,-0.432 7.92,-0.432 3.456,0 8.208,0.432 8.712,0.432 0.792,-0.072 2.304,-0.504 2.304,-1.224 0,-1.07999 -2.376,-1.44 -3.96,-2.16 -2.448,-1.07999 -3.384,-2.52 -3.384,-5.184 l 0,-30.024"
         style="fill:#ffffff;stroke:#808080;stroke-width:0.625;stroke-miterlimit:4;stroke-dasharray:none"
         id="path3031"
         inkscape:connector-curvature="0" />
      <path
         d="m 357.97556,497.93489 0,-12.096 c 0,-0.93599 0.288,-1.512 2.232,-1.512 l 8.568,0 c 3.456,0 5.256,1.15201 5.832,2.376 0.648,1.44 1.728,2.736 2.592,2.736 0.864,0 1.152,-1.008 1.152,-1.872 0,-0.79199 -0.36,-4.752 -0.648,-5.904 -0.144,-0.64799 -0.72,-1.008 -1.872,-1.008 -1.296,0 -5.544,0.36 -8.568,0.36 l -20.664,0 c -1.512,0 -2.52,0.43201 -2.52,1.296 0,0.648 0.504,1.008 1.152,1.224 4.104,1.152 5.904,1.22401 5.904,5.328 l 0,26.28 c 0,2.664 -0.936,4.10401 -3.384,5.184 -1.584,0.72 -3.96,1.08001 -3.96,2.16 0,0.72 1.584,1.152 2.376,1.224 0.504,0 4.75201,-0.36 8.136,-0.36 7.63199,0 20.66401,0.36 23.328,0.36 1.224,0 1.368,-0.288 1.944,-1.368 0.576,-0.93599 2.736,-6.264 2.736,-8.28 0,-1.07999 -0.288,-1.8 -1.008,-1.8 -0.648,0 -1.584,0.57601 -1.944,1.368 -2.088,4.392 -3.024,6.696 -8.568,6.696 l -10.08,0 c -2.088,0 -2.736,-0.936 -2.736,-2.808 l 0,-12.096 c 0,-1.36799 0.36,-1.728 1.728,-1.728 l 7.56,0 c 1.512,0 2.016,0.72001 2.52,1.512 0.432,0.72 1.368,2.736 2.304,2.736 0.72,0 0.936,-1.152 0.936,-1.872 0,-0.79199 -0.072,-3.024 -0.072,-4.104 0,-1.07999 0.288,-3.6 0.288,-4.176 0,-0.86399 -0.144,-1.44 -0.792,-1.44 -0.792,0 -1.44,1.08001 -2.232,1.8 -1.296,1.224 -2.088,2.016 -4.392,2.016 l -6.192,0 c -1.008,0 -1.656,-0.504 -1.656,-2.232"
         style="fill:#ffffff;stroke:#808080;stroke-width:0.625;stroke-miterlimit:4;stroke-dasharray:none"
         id="path3034"
         inkscape:connector-curvature="0" />
      <path
         d="m 413.44144,505.85489 c -0.936,-1.36799 -1.8,-2.952 -1.8,-3.6 0,-0.64799 0.288,-0.576 1.224,-1.296 3.38399,-2.44799 5.688,-5.472 5.688,-10.08 0,-7.27199 -8.06401,-10.296 -15.336,-10.296 -6.408,0 -9.36001,0.21601 -15.696,0.72 -1.512,0.072 -2.52,0.43201 -2.52,1.296 0,0.648 0.504,1.008 1.152,1.224 4.10399,1.152 5.904,1.22401 5.904,5.328 l 0,25.992 c 0,2.664 -0.936,4.10401 -3.384,5.184 -1.584,0.72 -3.96,1.08001 -3.96,2.16 0,0.72 1.584,1.152 2.376,1.224 0.504,0 4.824,-0.432 7.92,-0.432 3.45599,0 8.208,0.432 8.712,0.432 0.792,-0.072 2.304,-0.504 2.304,-1.224 0,-1.07999 -2.376,-1.44 -3.96,-2.16 -2.448,-1.07999 -3.384,-2.52 -3.384,-5.184 l 0,-8.64 c 0,-1.43999 0.504,-1.944 2.016,-1.944 3.02399,0 5.112,0.93601 5.976,2.376 3.74399,6.264 7.128,10.51201 11.376,14.976 2.016,2.16 5.616,3.384 9.144,3.384 2.51999,0 5.04,-0.864 5.04,-2.16 0,-0.57599 -0.432,-1.152 -1.224,-1.224 -1.584,-0.144 -3.24,-0.504 -4.104,-1.152 -5.4,-3.88799 -9.93601,-9.648 -13.464,-14.904 m -11.808,-3.888 c -2.088,0 -2.952,-0.576 -2.952,-1.872 l 0,-13.896 c 0,-1.36799 1.584,-2.448 3.6,-2.448 4.82399,0 9.072,3.38401 9.072,8.208 0,3.744 -1.58401,6.19201 -4.392,8.568 -0.648,0.72 -3.168,1.44 -5.328,1.44"
         style="fill:#ffffff;stroke:#808080;stroke-width:0.625;stroke-miterlimit:4;stroke-dasharray:none"
         id="path3036"
         inkscape:connector-curvature="0" />
      <path
         d="m 447.23756,503.98289 5.04,-14.328 c 0.288,-0.71999 0.576,-0.93599 0.792,-0.216 l 4.392,13.464 c 0.72,2.304 0.648,2.592 -0.792,2.592 l -8.784,0 c -1.296,0 -1.08,-0.36 -0.648,-1.512 m 20.52,19.296 c 2.376,0 4.968,0.432 6.624,0.432 1.368,0 2.088,-0.36 2.088,-1.152 0,-0.71999 -0.648,-1.44 -2.88,-2.232 -3.52799,-1.29599 -4.32,-3.24 -6.408,-9.072 l -9.504,-26.856 c -1.008,-2.80799 -1.44,-5.184 -2.664,-5.184 -0.432,0 -1.728,2.016 -3.096,2.16 -0.792,0.072 -0.792,1.00801 -2.016,4.104 l -11.016,30.456 c -1.08,2.952 -1.008,3.31201 -3.384,4.392 -1.584,0.72 -3.96,1.08001 -3.96,2.16 0,0.792 1.008,1.224 2.376,1.224 1.08,0 2.736,-0.432 4.536,-0.432 1.368,0 4.536,0.432 5.904,0.432 1.8,0 2.52,-0.432 2.52,-1.224 0,-0.71999 -0.792,-1.512 -2.664,-2.016 -2.088,-0.57599 -2.016,-1.728 -1.584,-3.024 l 2.736,-7.848 c 0.288,-0.71999 0.792,-0.792 1.152,-0.792 l 12.024,0 c 0.576,0 0.936,0.21601 1.152,0.864 l 2.088,6.84 c 0.36,1.224 0.504,2.59201 -2.088,3.816 -1.584,0.72 -3.888,1.08001 -3.888,2.16 0,0.792 1.368,1.224 2.304,1.224 2.16,0 4.89601,-0.432 9.648,-0.432"
         style="fill:#ffffff;stroke:#808080;stroke-width:0.625;stroke-miterlimit:4;stroke-dasharray:none"
         id="path3038"
         inkscape:connector-curvature="0" />
      <path
         d="m 136.10475,575.98289 5.04,-14.328 c 0.288,-0.71999 0.576,-0.93599 0.792,-0.216 l 4.392,13.464 c 0.72,2.304 0.648,2.592 -0.792,2.592 l -8.784,0 c -1.296,0 -1.08,-0.36 -0.648,-1.512 m 20.52,19.296 c 2.376,0 4.968,0.432 6.624,0.432 1.368,0 2.088,-0.36 2.088,-1.152 0,-0.71999 -0.648,-1.44 -2.88,-2.232 -3.528,-1.29599 -4.32,-3.24 -6.408,-9.072 l -9.504,-26.856 c -1.008,-2.80799 -1.44,-5.184 -2.664,-5.184 -0.432,0 -1.728,2.016 -3.096,2.16 -0.792,0.072 -0.792,1.00801 -2.016,4.104 l -11.016,30.456 c -1.08,2.952 -1.008,3.31201 -3.384,4.392 -1.584,0.72 -3.96,1.08001 -3.96,2.16 0,0.792 1.008,1.224 2.376,1.224 1.08,0 2.736,-0.432 4.536,-0.432 1.368,0 4.536,0.432 5.904,0.432 1.8,0 2.52,-0.432 2.52,-1.224 0,-0.71999 -0.792,-1.512 -2.664,-2.016 -2.088,-0.57599 -2.016,-1.728 -1.584,-3.024 l 2.736,-7.848 c 0.288,-0.71999 0.792,-0.792 1.152,-0.792 l 12.024,0 c 0.576,0 0.936,0.21601 1.152,0.864 l 2.088,6.84 c 0.36,1.224 0.504,2.59201 -2.088,3.816 -1.584,0.72 -3.888,1.08001 -3.888,2.16 0,0.792 1.368,1.224 2.304,1.224 2.16,0 4.896,-0.432 9.648,-0.432"
         style="fill:#ffffff;stroke:#808080;stroke-width:0.625;stroke-miterlimit:4;stroke-dasharray:none"
         id="path3040"
         inkscape:connector-curvature="0" />
      <path
         d="m 181.28025,558.05489 c 0,-1.58399 3.168,-2.304 6.264,-2.304 10.22399,0 18.36,7.77602 18.36,18.288 0,9.144 -4.53601,18.792 -13.104,18.792 -9.64799,0 -11.52,-1.296 -11.52,-6.12 l 0,-28.656 m 8.64,-5.544 c -4.464,0 -9.792,0.576 -14.256,0.576 -2.16,0 -3.528,-0.072 -5.76,-0.072 -1.512,0 -2.52,0.43201 -2.52,1.296 0,0.648 0.504,1.008 1.152,1.224 4.104,1.224 5.904,1.22401 5.904,5.328 l 0,26.28 c 0,2.664 -1.008,4.10401 -3.384,5.184 -1.584,0.72 -3.96,1.08001 -3.96,2.16 0,0.792 1.584,1.152 2.376,1.224 0.504,0 4.752,-0.432 8.064,-0.432 3.312,0 7.12801,0.792 13.968,0.792 15.47998,0 22.464,-11.01601 22.464,-23.472 0,-12.23998 -11.95201,-20.088 -24.048,-20.088"
         style="fill:#ffffff;stroke:#808080;stroke-width:0.625;stroke-miterlimit:4;stroke-dasharray:none"
         id="path3042"
         inkscape:connector-curvature="0" />
      <path
         d="m 249.30787,575.98289 5.04,-14.328 c 0.288,-0.71999 0.57601,-0.93599 0.792,-0.216 l 4.39201,13.464 c 0.71999,2.304 0.64799,2.592 -0.79201,2.592 l -8.784,0 c -1.29599,0 -1.07999,-0.36 -0.648,-1.512 m 20.52,19.296 c 2.376,0 4.96801,0.432 6.624,0.432 1.368,0 2.088,-0.36 2.088,-1.152 0,-0.71999 -0.648,-1.44 -2.88,-2.232 -3.52799,-1.29599 -4.32,-3.24 -6.408,-9.072 l -9.50399,-26.856 c -1.008,-2.80799 -1.44001,-5.184 -2.66401,-5.184 -0.43199,0 -1.728,2.016 -3.096,2.16 -0.79199,0.072 -0.792,1.00801 -2.016,4.104 l -11.016,30.456 c -1.07999,2.952 -1.008,3.31201 -3.384,4.392 -1.58399,0.72 -3.96,1.08001 -3.96,2.16 0,0.792 1.00801,1.224 2.376,1.224 1.08,0 2.73601,-0.432 4.536,-0.432 1.368,0 4.53601,0.432 5.904,0.432 1.8,0 2.52,-0.432 2.52,-1.224 0,-0.71999 -0.792,-1.512 -2.664,-2.016 -2.08799,-0.57599 -2.01599,-1.728 -1.584,-3.024 l 2.736,-7.848 c 0.288,-0.71999 0.79201,-0.792 1.152,-0.792 l 12.024,0 c 0.576,0 0.93601,0.21601 1.152,0.864 l 2.088,6.84 c 0.36,1.224 0.504,2.59201 -2.088,3.816 -1.58399,0.72 -3.888,1.08001 -3.888,2.16 0,0.792 1.36801,1.224 2.304,1.224 2.16,0 4.89601,-0.432 9.648,-0.432"
         style="fill:#ffffff;stroke:#808080;stroke-width:0.625;stroke-miterlimit:4;stroke-dasharray:none"
         id="path3044"
         inkscape:connector-curvature="0" />
      <path
         d="m 295.56337,552.29489 c -7.05599,0 -12.816,5.32801 -12.816,12.096 0,3.528 1.65601,6.12001 4.24801,8.28 l 9.71999,8.208 c 1.8,1.512 2.88,3.31201 2.88,5.76 0,3.6 -2.664,6.912 -6.264,6.912 -4.17599,0 -6.984,-2.088 -7.77599,-4.68 -0.648,-2.15999 -1.29601,-3.384 -2.44801,-3.384 -0.71999,0 -1.224,0.86401 -1.368,1.728 -0.21599,0.936 -0.504,3.96001 -0.504,4.968 0,1.008 0.64801,1.36801 3.312,2.592 1.728,0.792 5.04001,1.584 7.56,1.584 7.2,0 14.47201,-5.256 14.47201,-12.312 0,-3.02399 -1.22401,-5.472 -3.45601,-7.344 l -10.15199,-8.568 c -2.16,-1.79999 -3.67201,-3.672 -3.67201,-6.048 0,-3.16799 2.80801,-5.688 5.904,-5.688 2.088,0 4.96801,0.86401 5.688,2.592 1.08,2.592 2.01601,3.312 2.88,3.312 1.08,0 1.44,-1.008 1.44,-1.944 0,-1.36799 -0.072,-2.952 -0.28799,-4.104 -0.144,-0.79199 -0.79201,-1.368 -2.16001,-2.088 -1.58399,-0.79199 -4.896,-1.872 -7.2,-1.872"
         style="fill:#ffffff;stroke:#808080;stroke-width:0.625;stroke-miterlimit:4;stroke-dasharray:none"
         id="path3046"
         inkscape:connector-curvature="0" />
      <path
         d="m 327.402,559.20689 0,27.936 c 0,2.664 -0.936,4.10401 -3.384,5.184 -1.584,0.72 -3.96,1.08001 -3.96,2.16 0,0.72 1.584,1.152 2.376,1.224 0.504,0 4.752,-0.432 8.136,-0.432 3.456,0 8.208,0.432 8.712,0.432 0.792,-0.072 2.304,-0.504 2.304,-1.224 0,-1.07999 -2.376,-1.44 -3.96,-2.16 -2.448,-1.07999 -3.384,-2.52 -3.384,-5.184 l 0,-27.936 c 0,-0.71999 0.144,-2.232 0.864,-2.232 l 11.16,0 c 1.008,0 1.944,0.93601 2.592,2.016 0.792,1.368 1.872,3.24 2.592,3.24 0.864,0 1.008,-0.576 1.008,-1.656 0,-0.79199 -0.144,-3.24 -0.144,-4.968 0,-1.58399 0.288,-2.448 0.288,-3.096 0,-0.57599 -0.432,-1.296 -1.296,-1.296 -0.864,0 -1.224,0.57601 -2.088,1.08 -1.296,0.72 -2.448,1.224 -5.04,1.224 l -25.128,0 c -3.96,0 -5.76,-2.16 -6.84,-2.16 -0.72,0 -1.224,0.86401 -1.224,1.8 0,0.72 0.144,2.08801 0.144,3.24 0,2.304 -0.36,2.88001 -0.36,4.536 0,0.648 0.36,1.656 1.296,1.656 1.008,0 1.512,-2.016 2.304,-3.456 0.72,-1.29599 1.224,-2.16 3.096,-2.16 l 8.784,0 c 0.72,0 1.152,0.79201 1.152,2.232"
         style="fill:#ffffff;stroke:#808080;stroke-width:0.625;stroke-miterlimit:4;stroke-dasharray:none"
         id="path3048"
         inkscape:connector-curvature="0" />
      <path
         d="m 381.02737,577.85489 c -0.93599,-1.36799 -1.8,-2.952 -1.8,-3.6 0,-0.64799 0.28801,-0.576 1.224,-1.296 3.384,-2.44799 5.688,-5.472 5.688,-10.08 0,-7.27199 -8.064,-10.296 -15.33599,-10.296 -6.408,0 -9.36001,0.21601 -15.69601,0.72 -1.51199,0.072 -2.52,0.43201 -2.52,1.296 0,0.648 0.50401,1.008 1.152,1.224 4.104,1.152 5.904,1.22401 5.904,5.328 l 0,25.992 c 0,2.664 -0.936,4.10401 -3.384,5.184 -1.58399,0.72 -3.96,1.08001 -3.96,2.16 0,0.72 1.58401,1.152 2.376,1.224 0.504,0 4.82401,-0.432 7.92,-0.432 3.456,0 8.20801,0.432 8.712,0.432 0.792,-0.072 2.304,-0.504 2.304,-1.224 0,-1.07999 -2.376,-1.44 -3.95999,-2.16 -2.448,-1.07999 -3.384,-2.52 -3.384,-5.184 l 0,-8.64 c 0,-1.43999 0.504,-1.944 2.01599,-1.944 3.024,0 5.11201,0.93601 5.976,2.376 3.744,6.264 7.12801,10.51201 11.376,14.976 2.016,2.16 5.61601,3.384 9.14401,3.384 2.51999,0 5.03999,-0.864 5.03999,-2.16 0,-0.57599 -0.432,-1.152 -1.224,-1.224 -1.58399,-0.144 -3.24,-0.504 -4.104,-1.152 -5.39999,-3.88799 -9.936,-9.648 -13.464,-14.904 m -11.80799,-3.888 c -2.088,0 -2.952,-0.576 -2.952,-1.872 l 0,-13.896 c 0,-1.36799 1.584,-2.448 3.59999,-2.448 4.824,0 9.072,3.38401 9.072,8.208 0,3.744 -1.584,6.19201 -4.392,8.568 -0.64799,0.72 -3.168,1.44 -5.32799,1.44"
         style="fill:#ffffff;stroke:#808080;stroke-width:0.625;stroke-miterlimit:4;stroke-dasharray:none"
         id="path3050"
         inkscape:connector-curvature="0" />
      <path
         d="m 414.8235,575.98289 5.04,-14.328 c 0.288,-0.71999 0.576,-0.93599 0.792,-0.216 l 4.392,13.464 c 0.72,2.304 0.648,2.592 -0.792,2.592 l -8.784,0 c -1.296,0 -1.08,-0.36 -0.648,-1.512 m 20.52,19.296 c 2.376,0 4.968,0.432 6.624,0.432 1.368,0 2.088,-0.36 2.088,-1.152 0,-0.71999 -0.648,-1.44 -2.88,-2.232 -3.528,-1.29599 -4.32,-3.24 -6.408,-9.072 l -9.504,-26.856 c -1.008,-2.80799 -1.44,-5.184 -2.664,-5.184 -0.432,0 -1.728,2.016 -3.096,2.16 -0.792,0.072 -0.792,1.00801 -2.016,4.104 l -11.016,30.456 c -1.08,2.952 -1.008,3.31201 -3.384,4.392 -1.584,0.72 -3.96,1.08001 -3.96,2.16 0,0.792 1.008,1.224 2.376,1.224 1.08,0 2.736,-0.432 4.536,-0.432 1.368,0 4.536,0.432 5.904,0.432 1.8,0 2.52,-0.432 2.52,-1.224 0,-0.71999 -0.792,-1.512 -2.664,-2.016 -2.088,-0.57599 -2.016,-1.728 -1.584,-3.024 l 2.736,-7.848 c 0.288,-0.71999 0.792,-0.792 1.152,-0.792 l 12.024,0 c 0.576,0 0.936,0.21601 1.152,0.864 l 2.088,6.84 c 0.36,1.224 0.504,2.59201 -2.088,3.816 -1.584,0.72 -3.888,1.08001 -3.888,2.16 0,0.792 1.368,1.224 2.304,1.224 2.16,0 4.896,-0.432 9.648,-0.432"
         style="fill:#ffffff;stroke:#808080;stroke-width:0.625;stroke-miterlimit:4;stroke-dasharray:none"
         id="path3052"
         inkscape:connector-curvature="0" />
    </g>
  </g>
</svg>
